<svg xmlns="http://www.w3.org/2000/svg" version="1.1" xmlns:xlink="http://www.w3.org/1999/xlink" xmlns:svgjs="http://svgjs.dev/svgjs" width="1920" height="1080" preserveAspectRatio="none" viewBox="0 0 1920 1080"><g mask="url(&quot;#SvgjsMask2042&quot;)" fill="none"><rect width="1920" height="1080" x="0" y="0" fill="url(&quot;#SvgjsLinearGradient2043&quot;)"></rect><path d="M405.0971277246776 154.28089070749667L214.39996595803797 239.1847373329269 437.1043167795031 482.77855667017116z" fill="rgba(28, 83, 142, 0.4)" class="triangle-float3"></path><path d="M1895.188,225.175C1956.961,225.92,2018.705,202.904,2051.034,150.262C2084.793,95.292,2083.005,26.315,2052.08,-30.298C2019.771,-89.445,1962.575,-133.915,1895.188,-135.041C1826.009,-136.197,1761.383,-96.809,1728.946,-35.695C1698.287,22.07,1710.57,91.431,1745.715,146.582C1778.139,197.462,1834.859,224.448,1895.188,225.175" fill="rgba(28, 83, 142, 0.4)" class="triangle-float3"></path><path d="M1878.4799965458562-86.16686536669408L1753.0267481520696 99.82522407506778 1939.0188375938312 225.2784724688546 2064.472085987618 39.28638302709271z" fill="rgba(28, 83, 142, 0.4)" class="triangle-float2"></path><path d="M336.11 141.18 a276.26 276.26 0 1 0 552.52 0 a276.26 276.26 0 1 0 -552.52 0z" fill="rgba(28, 83, 142, 0.4)" class="triangle-float3"></path><path d="M1485.5577305476133 544.5412234466171L1774.1763609652965 439.49263291990223 1669.1277704385816 150.87400250221913 1380.5091400208985 255.92259302893393z" fill="rgba(28, 83, 142, 0.4)" class="triangle-float3"></path><path d="M2010.76,1170.288C2098.946,1171.467,2183.331,1131.03,2229.513,1055.894C2277.949,977.091,2283.713,878.761,2240.078,797.201C2193.879,710.849,2108.638,643.704,2010.76,647.013C1917.126,650.178,1849.904,728.659,1806.81,811.847C1767.636,887.469,1759.79,976.156,1801.908,1050.178C1844.476,1124.99,1924.693,1169.137,2010.76,1170.288" fill="rgba(28, 83, 142, 0.4)" class="triangle-float3"></path></g><defs><mask id="SvgjsMask2042"><rect width="1920" height="1080" fill="#ffffff"></rect></mask><linearGradient x1="50%" y1="0%" x2="50%" y2="100%" gradientUnits="userSpaceOnUse" id="SvgjsLinearGradient2043"><stop stop-color="#0e2a47" offset="0"></stop><stop stop-color="rgba(4, 20, 55, 1)" offset="1"></stop></linearGradient><style>
                @keyframes float1 {
                    0%{transform: translate(0, 0)}
                    50%{transform: translate(-10px, 0)}
                    100%{transform: translate(0, 0)}
                }

                .triangle-float1 {
                    animation: float1 5s infinite;
                }

                @keyframes float2 {
                    0%{transform: translate(0, 0)}
                    50%{transform: translate(-5px, -5px)}
                    100%{transform: translate(0, 0)}
                }

                .triangle-float2 {
                    animation: float2 4s infinite;
                }

                @keyframes float3 {
                    0%{transform: translate(0, 0)}
                    50%{transform: translate(0, -10px)}
                    100%{transform: translate(0, 0)}
                }

                .triangle-float3 {
                    animation: float3 6s infinite;
                }
            </style></defs></svg>